<?xml version="1.0" standalone="no"?>
<!DOCTYPE svg PUBLIC "-//W3C//DTD SVG 20010904//EN"
 "http://www.w3.org/TR/2001/REC-SVG-20010904/DTD/svg10.dtd">
<svg version="1.0" xmlns="http://www.w3.org/2000/svg"
 width="160.000000pt" height="160.000000pt" viewBox="0 0 160.000000 160.000000"
 preserveAspectRatio="xMidYMid meet">
<metadata>
Created by potrace 1.14, written by Peter Selinger 2001-2017
</metadata>
<g transform="translate(0.000000,160.000000) scale(0.100000,-0.100000)"
fill="#000000" stroke="none">
<path d="M775 1492 c-28 -6 -75 -52 -75 -73 0 -23 -12 -30 -61 -32 -35 -2 -43
1 -52 20 -12 27 -59 42 -102 33 -16 -4 -54 -5 -82 -4 -51 4 -53 3 -53 -21 0
-21 -5 -25 -27 -25 -45 0 -121 32 -160 67 -45 41 -85 44 -101 7 -19 -40 4 -73
88 -128 40 -26 87 -43 145 -51 22 -4 45 -13 51 -21 6 -8 15 -14 20 -14 5 0 9
-22 9 -49 0 -44 -2 -48 -18 -39 -22 11 -49 -7 -45 -30 2 -11 -8 -18 -29 -23
-53 -11 -101 -38 -144 -82 -94 -94 -111 -240 -41 -352 26 -41 78 -91 115 -110
12 -5 31 -36 45 -70 34 -84 83 -154 157 -224 60 -55 177 -124 233 -136 12 -3
32 -8 45 -11 54 -15 195 -15 263 -1 158 34 302 133 387 269 32 51 41 72 83
183 17 44 24 52 62 64 89 28 67 125 -24 109 -16 -3 -19 3 -19 40 0 23 -2 42
-5 42 -3 0 -3 44 0 97 3 54 3 122 0 151 -3 29 -4 55 -1 57 2 2 3 46 2 98 l-2
94 41 28 c70 49 86 110 34 133 -20 10 -28 7 -54 -14 l-30 -26 -29 22 c-56 39
-137 22 -163 -35 -9 -21 -12 -22 -25 -9 -11 11 -36 14 -92 13 -94 -2 -114 -7
-107 -25 7 -19 -10 -27 -60 -28 -40 -1 -43 1 -53 34 -17 53 -71 84 -126 72z
m-80 -397 c0 -102 -1 -185 -3 -185 -2 0 -10 16 -18 35 -8 20 -30 53 -50 74
-37 41 -40 60 -35 224 l1 37 53 0 52 0 0 -185z m317 168 c6 -28 2 -543 -5
-549 -11 -11 -64 35 -81 71 -16 33 -21 177 -17 448 l1 47 49 0 c38 0 50 -4 53
-17z"/>
</g>
</svg>
